<svg width="232" height="41" viewBox="0 0 232 41" fill="none" xmlns="http://www.w3.org/2000/svg">
<path d="M38.68 10.512C40.184 10.512 41.5387 10.8693 42.744 11.584C43.9493 12.288 44.8987 13.2693 45.592 14.528C46.296 15.776 46.648 17.216 46.648 18.848V25.872C46.648 27.6107 46.296 29.1307 45.592 30.432C44.8987 31.7227 43.9227 32.72 42.664 33.424C41.4053 34.128 39.9333 34.48 38.248 34.48C37.0853 34.48 35.9867 34.2827 34.952 33.888C33.9173 33.4827 32.9893 32.864 32.168 32.032L34.936 29.328C35.352 29.808 35.848 30.1867 36.424 30.464C37.0107 30.7307 37.6187 30.864 38.248 30.864C39.144 30.864 39.928 30.656 40.6 30.24C41.272 29.8133 41.7947 29.264 42.168 28.592C42.5413 27.9093 42.728 27.1787 42.728 26.4V22.576L43.416 23.344C42.7653 24.112 41.976 24.7147 41.048 25.152C40.12 25.5787 39.144 25.792 38.12 25.792C36.68 25.792 35.4 25.4613 34.28 24.8C33.1707 24.1387 32.296 23.2427 31.656 22.112C31.0267 20.9707 30.712 19.68 30.712 18.24C30.712 16.8 31.0747 15.4987 31.8 14.336C32.5253 13.1627 33.4907 12.2347 34.696 11.552C35.912 10.8587 37.24 10.512 38.68 10.512ZM38.68 14.192C37.9333 14.192 37.2507 14.3733 36.632 14.736C36.0133 15.0987 35.5227 15.5893 35.16 16.208C34.7973 16.816 34.616 17.4933 34.616 18.24C34.616 18.9867 34.792 19.6693 35.144 20.288C35.5067 20.9067 35.992 21.3973 36.6 21.76C37.2187 22.1227 37.9013 22.304 38.648 22.304C39.3947 22.304 40.0773 22.1227 40.696 21.76C41.3147 21.3973 41.8053 20.9067 42.168 20.288C42.5413 19.6693 42.728 18.9867 42.728 18.24C42.728 17.5147 42.5467 16.848 42.184 16.24C41.8213 15.6213 41.3307 15.1253 40.712 14.752C40.104 14.3787 39.4267 14.192 38.68 14.192ZM55.115 34V15.168L50.795 17.808V13.552L55.115 10.96H59.051V34H55.115ZM66.3143 34L74.2503 14.608H64.1863V10.96H78.3783V14.608L70.4743 34H66.3143ZM95.207 34.432C94.055 34.432 92.967 34.208 91.943 33.76C90.919 33.312 90.0283 32.6773 89.271 31.856C88.5243 31.0347 87.9857 30.064 87.655 28.944L91.383 27.936C91.6497 28.8533 92.135 29.5627 92.839 30.064C93.5537 30.5547 94.3377 30.7947 95.191 30.784C95.9483 30.784 96.6257 30.608 97.223 30.256C97.8203 29.904 98.2897 29.4293 98.631 28.832C98.9723 28.224 99.143 27.5467 99.143 26.8C99.143 25.6587 98.775 24.704 98.039 23.936C97.303 23.168 96.3537 22.784 95.191 22.784C94.839 22.784 94.4923 22.832 94.151 22.928C93.8203 23.024 93.5003 23.1573 93.191 23.328L91.431 20.288L99.175 13.664L99.511 14.592H88.551V10.96H102.679V14.608L96.455 20.592L96.423 19.456C97.8203 19.552 99.0097 19.9413 99.991 20.624C100.983 21.3067 101.74 22.1867 102.263 23.264C102.796 24.3413 103.063 25.52 103.063 26.8C103.063 28.2507 102.706 29.552 101.991 30.704C101.287 31.856 100.338 32.768 99.143 33.44C97.959 34.1013 96.647 34.432 95.207 34.432ZM114.745 34.48C113.219 34.48 111.865 34.1707 110.681 33.552C109.497 32.9333 108.569 32.0747 107.897 30.976C107.225 29.8773 106.889 28.6187 106.889 27.2C106.889 25.9307 107.182 24.752 107.769 23.664C108.355 22.576 109.214 21.7067 110.345 21.056L110.265 22.288C109.379 21.616 108.691 20.8427 108.201 19.968C107.721 19.0827 107.481 18.0907 107.481 16.992C107.481 15.6693 107.79 14.5227 108.409 13.552C109.038 12.5813 109.897 11.8293 110.985 11.296C112.073 10.752 113.326 10.48 114.745 10.48C116.163 10.48 117.417 10.752 118.505 11.296C119.603 11.8293 120.462 12.5813 121.081 13.552C121.71 14.5227 122.025 15.6693 122.025 16.992C122.025 18.0907 121.79 19.0773 121.321 19.952C120.862 20.8267 120.163 21.616 119.225 22.32L119.209 21.072C120.318 21.7013 121.166 22.5653 121.753 23.664C122.35 24.752 122.649 25.9307 122.649 27.2C122.649 28.6187 122.307 29.8773 121.625 30.976C120.953 32.0747 120.019 32.9333 118.825 33.552C117.641 34.1707 116.281 34.48 114.745 34.48ZM114.745 30.848C115.875 30.848 116.793 30.5387 117.497 29.92C118.211 29.3013 118.569 28.3947 118.569 27.2C118.569 26.0053 118.217 25.0987 117.513 24.48C116.809 23.8507 115.886 23.536 114.745 23.536C113.614 23.536 112.702 23.8507 112.009 24.48C111.315 25.0987 110.969 26.0053 110.969 27.2C110.969 28.3947 111.315 29.3013 112.009 29.92C112.702 30.5387 113.614 30.848 114.745 30.848ZM114.745 19.872C115.694 19.872 116.462 19.6373 117.049 19.168C117.646 18.688 117.945 17.9627 117.945 16.992C117.945 16.0213 117.646 15.3013 117.049 14.832C116.462 14.352 115.694 14.112 114.745 14.112C113.806 14.112 113.038 14.352 112.441 14.832C111.854 15.3013 111.561 16.0213 111.561 16.992C111.561 17.9627 111.854 18.688 112.441 19.168C113.038 19.6373 113.806 19.872 114.745 19.872ZM134.243 10.512C135.747 10.512 137.101 10.8693 138.307 11.584C139.512 12.288 140.461 13.2693 141.155 14.528C141.859 15.776 142.211 17.216 142.211 18.848V25.872C142.211 27.6107 141.859 29.1307 141.155 30.432C140.461 31.7227 139.485 32.72 138.227 33.424C136.968 34.128 135.496 34.48 133.811 34.48C132.648 34.48 131.549 34.2827 130.515 33.888C129.48 33.4827 128.552 32.864 127.731 32.032L130.499 29.328C130.915 29.808 131.411 30.1867 131.987 30.464C132.573 30.7307 133.181 30.864 133.811 30.864C134.707 30.864 135.491 30.656 136.163 30.24C136.835 29.8133 137.357 29.264 137.731 28.592C138.104 27.9093 138.291 27.1787 138.291 26.4V22.576L138.979 23.344C138.328 24.112 137.539 24.7147 136.611 25.152C135.683 25.5787 134.707 25.792 133.683 25.792C132.243 25.792 130.963 25.4613 129.843 24.8C128.733 24.1387 127.859 23.2427 127.219 22.112C126.589 20.9707 126.275 19.68 126.275 18.24C126.275 16.8 126.637 15.4987 127.363 14.336C128.088 13.1627 129.053 12.2347 130.259 11.552C131.475 10.8587 132.803 10.512 134.243 10.512ZM134.243 14.192C133.496 14.192 132.813 14.3733 132.195 14.736C131.576 15.0987 131.085 15.5893 130.723 16.208C130.36 16.816 130.179 17.4933 130.179 18.24C130.179 18.9867 130.355 19.6693 130.707 20.288C131.069 20.9067 131.555 21.3973 132.163 21.76C132.781 22.1227 133.464 22.304 134.211 22.304C134.957 22.304 135.64 22.1227 136.259 21.76C136.877 21.3973 137.368 20.9067 137.731 20.288C138.104 19.6693 138.291 18.9867 138.291 18.24C138.291 17.5147 138.109 16.848 137.747 16.24C137.384 15.6213 136.893 15.1253 136.275 14.752C135.667 14.3787 134.989 14.192 134.243 14.192ZM161.052 34.48C159.548 34.48 158.193 34.128 156.988 33.424C155.793 32.7093 154.844 31.7227 154.14 30.464C153.436 29.2053 153.084 27.76 153.084 26.128V19.12C153.084 17.3707 153.43 15.8507 154.124 14.56C154.828 13.2693 155.809 12.272 157.068 11.568C158.337 10.864 159.809 10.512 161.484 10.512C162.646 10.512 163.75 10.7093 164.796 11.104C165.841 11.488 166.769 12.1067 167.58 12.96L164.796 15.664C164.39 15.184 163.894 14.8053 163.308 14.528C162.732 14.2507 162.124 14.112 161.484 14.112C160.588 14.112 159.804 14.3253 159.132 14.752C158.46 15.168 157.937 15.7173 157.564 16.4C157.201 17.0827 157.02 17.8133 157.02 18.592V22.416L156.316 21.648C156.977 20.88 157.772 20.2827 158.7 19.856C159.628 19.4187 160.598 19.2 161.612 19.2C163.062 19.2 164.342 19.5307 165.452 20.192C166.561 20.8427 167.436 21.7387 168.076 22.88C168.716 24.0107 169.036 25.3013 169.036 26.752C169.036 28.192 168.668 29.4987 167.932 30.672C167.206 31.8347 166.241 32.7627 165.036 33.456C163.83 34.1387 162.502 34.48 161.052 34.48ZM161.052 30.784C161.798 30.784 162.481 30.608 163.1 30.256C163.718 29.8933 164.209 29.408 164.572 28.8C164.945 28.1813 165.132 27.4987 165.132 26.752C165.132 26.0053 164.95 25.3227 164.588 24.704C164.225 24.0853 163.734 23.5947 163.116 23.232C162.508 22.8587 161.83 22.672 161.084 22.672C160.337 22.672 159.654 22.8587 159.036 23.232C158.417 23.5947 157.926 24.0853 157.564 24.704C157.201 25.3227 157.02 26.0053 157.02 26.752C157.02 27.4773 157.196 28.1493 157.548 28.768C157.91 29.376 158.396 29.8667 159.004 30.24C159.622 30.6027 160.305 30.784 161.052 30.784ZM172.319 33.968V30.608L182.175 21.824C182.943 21.1413 183.476 20.496 183.775 19.888C184.073 19.28 184.223 18.6933 184.223 18.128C184.223 17.36 184.057 16.6773 183.727 16.08C183.396 15.472 182.937 14.992 182.351 14.64C181.775 14.288 181.108 14.112 180.351 14.112C179.551 14.112 178.841 14.2987 178.223 14.672C177.615 15.0347 177.14 15.52 176.799 16.128C176.457 16.736 176.297 17.392 176.319 18.096H172.351C172.351 16.56 172.692 15.2213 173.375 14.08C174.068 12.9387 175.017 12.0533 176.223 11.424C177.439 10.7947 178.841 10.48 180.431 10.48C181.903 10.48 183.225 10.8107 184.399 11.472C185.572 12.1227 186.495 13.0293 187.167 14.192C187.839 15.344 188.175 16.672 188.175 18.176C188.175 19.2747 188.025 20.1973 187.727 20.944C187.428 21.6907 186.98 22.3787 186.383 23.008C185.796 23.6373 185.065 24.336 184.191 25.104L177.199 31.296L176.847 30.336H188.175V33.968H172.319ZM199.557 34.48C198.032 34.48 196.677 34.1707 195.493 33.552C194.309 32.9333 193.381 32.0747 192.709 30.976C192.037 29.8773 191.701 28.6187 191.701 27.2C191.701 25.9307 191.995 24.752 192.581 23.664C193.168 22.576 194.027 21.7067 195.157 21.056L195.077 22.288C194.192 21.616 193.504 20.8427 193.013 19.968C192.533 19.0827 192.293 18.0907 192.293 16.992C192.293 15.6693 192.603 14.5227 193.221 13.552C193.851 12.5813 194.709 11.8293 195.797 11.296C196.885 10.752 198.139 10.48 199.557 10.48C200.976 10.48 202.229 10.752 203.317 11.296C204.416 11.8293 205.275 12.5813 205.893 13.552C206.523 14.5227 206.837 15.6693 206.837 16.992C206.837 18.0907 206.603 19.0773 206.133 19.952C205.675 20.8267 204.976 21.616 204.037 22.32L204.021 21.072C205.131 21.7013 205.979 22.5653 206.565 23.664C207.163 24.752 207.461 25.9307 207.461 27.2C207.461 28.6187 207.12 29.8773 206.437 30.976C205.765 32.0747 204.832 32.9333 203.637 33.552C202.453 34.1707 201.093 34.48 199.557 34.48ZM199.557 30.848C200.688 30.848 201.605 30.5387 202.309 29.92C203.024 29.3013 203.381 28.3947 203.381 27.2C203.381 26.0053 203.029 25.0987 202.325 24.48C201.621 23.8507 200.699 23.536 199.557 23.536C198.427 23.536 197.515 23.8507 196.821 24.48C196.128 25.0987 195.781 26.0053 195.781 27.2C195.781 28.3947 196.128 29.3013 196.821 29.92C197.515 30.5387 198.427 30.848 199.557 30.848ZM199.557 19.872C200.507 19.872 201.275 19.6373 201.861 19.168C202.459 18.688 202.757 17.9627 202.757 16.992C202.757 16.0213 202.459 15.3013 201.861 14.832C201.275 14.352 200.507 14.112 199.557 14.112C198.619 14.112 197.851 14.352 197.253 14.832C196.667 15.3013 196.373 16.0213 196.373 16.992C196.373 17.9627 196.667 18.688 197.253 19.168C197.851 19.6373 198.619 19.872 199.557 19.872Z" fill="white"/>
<g clip-path="url(#clip0_245_2)">
<path d="M15.0266 9H1.9818C1.45764 9 0.954824 9.20575 0.583404 9.57223C0.211984 9.9387 0.00221165 10.4361 0 10.9554V36.0363C0.00220099 36.5564 0.211704 37.0546 0.582888 37.4224C0.954071 37.7902 1.45687 37.9978 1.9818 38H15.0266C15.5507 38 16.0535 37.7943 16.425 37.4278C16.7964 37.0613 17.0061 36.5639 17.0084 36.0446V10.9554C17.0061 10.4361 16.7964 9.9387 16.425 9.57223C16.0535 9.20575 15.5507 9 15.0266 9ZM6.41367 10.4086H10.5947C10.659 10.4086 10.7207 10.4339 10.7662 10.4789C10.8116 10.524 10.8372 10.5851 10.8372 10.6489C10.8372 10.7126 10.8116 10.7737 10.7662 10.8188C10.7207 10.8638 10.659 10.8891 10.5947 10.8891H6.41367C6.34936 10.8891 6.28768 10.8638 6.2422 10.8188C6.19672 10.7737 6.17118 10.7126 6.17118 10.6489C6.17118 10.5851 6.19672 10.524 6.2422 10.4789C6.28768 10.4339 6.34936 10.4086 6.41367 10.4086ZM8.50418 37.0223C8.30667 37.0239 8.11314 36.9673 7.94822 36.8596C7.7833 36.7519 7.65447 36.598 7.57812 36.4175C7.50177 36.237 7.48136 36.038 7.51949 35.846C7.55762 35.6539 7.65256 35.4775 7.79222 35.3391C7.93189 35.2007 8.10996 35.1066 8.30377 35.0689C8.49757 35.0311 8.69833 35.0513 8.8805 35.127C9.06266 35.2026 9.21798 35.3303 9.32669 35.4937C9.43539 35.6571 9.49255 35.8489 9.4909 36.0446C9.4909 36.3039 9.38694 36.5526 9.2019 36.7359C9.01685 36.9193 8.76587 37.0223 8.50418 37.0223ZM15.6119 34.3791H1.39646V12.1071H15.6119V34.3791Z" fill="white"/>
</g>
<defs>
<clipPath id="clip0_245_2">
<rect width="17" height="29" fill="white" transform="translate(0 9)"/>
</clipPath>
</defs>
</svg>
