<svg width="355" height="30" viewBox="0 0 355 30" fill="none" xmlns="http://www.w3.org/2000/svg">
<path d="M0.88 29V0.999998H10.92C13.2667 0.999998 15.28 1.37333 16.96 2.12C18.64 2.86666 19.9333 3.94666 20.84 5.36C21.7467 6.74667 22.2 8.44 22.2 10.44C22.2 12.3867 21.7467 14.0667 20.84 15.48C19.9333 16.8933 18.64 17.9733 16.96 18.72C15.28 19.4667 13.2667 19.84 10.92 19.84H2L2.92 18.88V29H0.88ZM2.92 19L2 18H10.92C13.9333 18 16.2133 17.3467 17.76 16.04C19.3333 14.7067 20.12 12.84 20.12 10.44C20.12 8.01333 19.3333 6.14667 17.76 4.84C16.2133 3.50667 13.9333 2.84 10.92 2.84H2L2.92 1.84V19ZM30.8831 13.88H46.0431V15.68H30.8831V13.88ZM31.1231 27.16H48.4031V29H29.0831V0.999998H47.8031V2.84H31.1231V27.16ZM55.8409 29V0.999998H66.9209C69.8809 0.999998 72.4809 1.6 74.7209 2.8C76.9609 4 78.6943 5.65333 79.9209 7.76C81.1743 9.86667 81.8009 12.28 81.8009 15C81.8009 17.72 81.1743 20.1333 79.9209 22.24C78.6943 24.3467 76.9609 26 74.7209 27.2C72.4809 28.4 69.8809 29 66.9209 29H55.8409ZM57.8809 27.16H66.7609C69.4009 27.16 71.6943 26.64 73.6409 25.6C75.5876 24.56 77.0943 23.1333 78.1609 21.32C79.2276 19.48 79.7609 17.3733 79.7609 15C79.7609 12.6267 79.2276 10.5333 78.1609 8.72C77.0943 6.88 75.5876 5.44 73.6409 4.4C71.6943 3.36 69.4009 2.84 66.7609 2.84H57.8809V27.16ZM88.8878 29V0.999998H98.9278C101.274 0.999998 103.288 1.37333 104.968 2.12C106.648 2.86666 107.941 3.94666 108.848 5.36C109.754 6.74667 110.208 8.44 110.208 10.44C110.208 12.3867 109.754 14.0667 108.848 15.48C107.941 16.8667 106.648 17.9467 104.968 18.72C103.288 19.4667 101.274 19.84 98.9278 19.84H90.0078L90.9278 18.88V29H88.8878ZM108.328 29L101.048 18.84H103.368L110.648 29H108.328ZM90.9278 19L90.0078 18.04H98.9278C101.941 18.04 104.221 17.3733 105.768 16.04C107.341 14.7067 108.128 12.84 108.128 10.44C108.128 8.01333 107.341 6.14667 105.768 4.84C104.221 3.50667 101.941 2.84 98.9278 2.84H90.0078L90.9278 1.84V19ZM129.557 29.2C127.477 29.2 125.544 28.8533 123.757 28.16C121.997 27.44 120.45 26.44 119.117 25.16C117.81 23.8533 116.797 22.3467 116.077 20.64C115.357 18.9067 114.997 17.0267 114.997 15C114.997 12.9733 115.357 11.1067 116.077 9.4C116.797 7.66667 117.81 6.16 119.117 4.88C120.45 3.57333 121.997 2.57333 123.757 1.88C125.544 1.16 127.477 0.799998 129.557 0.799998C131.637 0.799998 133.557 1.16 135.317 1.88C137.104 2.57333 138.65 3.56 139.957 4.84C141.264 6.12 142.277 7.62666 142.997 9.36C143.744 11.0667 144.117 12.9467 144.117 15C144.117 17.0533 143.744 18.9467 142.997 20.68C142.277 22.3867 141.264 23.88 139.957 25.16C138.65 26.44 137.104 27.44 135.317 28.16C133.557 28.8533 131.637 29.2 129.557 29.2ZM129.557 27.32C131.344 27.32 132.997 27.0133 134.517 26.4C136.037 25.7867 137.357 24.92 138.477 23.8C139.597 22.68 140.464 21.3733 141.077 19.88C141.717 18.3867 142.037 16.76 142.037 15C142.037 13.2133 141.717 11.5867 141.077 10.12C140.464 8.62667 139.597 7.32 138.477 6.2C137.357 5.08 136.037 4.21333 134.517 3.6C132.997 2.98666 131.344 2.68 129.557 2.68C127.77 2.68 126.117 2.98666 124.597 3.6C123.077 4.21333 121.744 5.08 120.597 6.2C119.477 7.32 118.597 8.62667 117.957 10.12C117.344 11.5867 117.037 13.2133 117.037 15C117.037 16.76 117.344 18.3867 117.957 19.88C118.597 21.3733 119.477 22.68 120.597 23.8C121.744 24.92 123.077 25.7867 124.597 26.4C126.117 27.0133 127.77 27.32 129.557 27.32ZM173.466 29.4C171.279 29.4 169.266 29.04 167.426 28.32C165.586 27.6 163.986 26.6 162.626 25.32C161.266 24.0133 160.213 22.4933 159.466 20.76C158.719 19 158.346 17.08 158.346 15C158.346 12.92 158.719 11.0133 159.466 9.28C160.213 7.52 161.266 6 162.626 4.72C163.986 3.41333 165.586 2.4 167.426 1.68C169.266 0.959999 171.266 0.599998 173.426 0.599998C175.613 0.599998 177.613 0.959999 179.426 1.68C181.266 2.4 182.866 3.41333 184.226 4.72C185.586 6 186.639 7.52 187.386 9.28C188.133 11.0133 188.506 12.92 188.506 15C188.506 17.08 188.133 19 187.386 20.76C186.639 22.52 185.586 24.04 184.226 25.32C182.866 26.6 181.266 27.6 179.426 28.32C177.613 29.04 175.626 29.4 173.466 29.4ZM173.426 24.84C174.839 24.84 176.146 24.6 177.346 24.12C178.546 23.64 179.586 22.96 180.466 22.08C181.346 21.1733 182.026 20.1333 182.506 18.96C183.013 17.76 183.266 16.44 183.266 15C183.266 13.56 183.013 12.2533 182.506 11.08C182.026 9.88 181.346 8.84 180.466 7.96C179.586 7.05333 178.546 6.36 177.346 5.88C176.146 5.4 174.839 5.16 173.426 5.16C172.013 5.16 170.706 5.4 169.506 5.88C168.333 6.36 167.293 7.05333 166.386 7.96C165.506 8.84 164.813 9.88 164.306 11.08C163.826 12.2533 163.586 13.56 163.586 15C163.586 16.4133 163.826 17.72 164.306 18.92C164.813 20.12 165.506 21.1733 166.386 22.08C167.266 22.96 168.306 23.64 169.506 24.12C170.706 24.6 172.013 24.84 173.426 24.84ZM194.018 29V0.999998H199.218V24.6H213.858V29H194.018ZM217.963 29V0.999998H223.163V29H217.963ZM238.821 29L226.581 0.999998H232.221L243.141 26.32H239.901L250.941 0.999998H256.141L243.941 29H238.821ZM263.896 12.64H277.816V16.92H263.896V12.64ZM264.296 24.64H280.096V29H259.096V0.999998H279.536V5.36H264.296V24.64ZM285.893 29V0.999998H291.093V29H285.893ZM298.666 29V0.999998H310.186C312.666 0.999998 314.786 1.4 316.546 2.2C318.333 3 319.706 4.14666 320.666 5.64C321.626 7.13333 322.106 8.90667 322.106 10.96C322.106 13.0133 321.626 14.7867 320.666 16.28C319.706 17.7467 318.333 18.88 316.546 19.68C314.786 20.4533 312.666 20.84 310.186 20.84H301.546L303.866 18.48V29H298.666ZM316.986 29L309.906 18.84H315.466L322.586 29H316.986ZM303.866 19.04L301.546 16.56H309.946C312.24 16.56 313.96 16.0667 315.106 15.08C316.28 14.0933 316.866 12.72 316.866 10.96C316.866 9.17333 316.28 7.8 315.106 6.84C313.96 5.88 312.24 5.4 309.946 5.4H301.546L303.866 2.84V19.04ZM323.964 29L336.564 0.999998H341.684L354.324 29H348.884L338.044 3.76H340.124L329.324 29H323.964ZM329.764 22.52L331.164 18.44H346.284L347.684 22.52H329.764Z" fill="white"/>
</svg>
